<?xml version="1.0" encoding="UTF-8"?>
<svg id="Layer_2" xmlns="http://www.w3.org/2000/svg" viewBox="0 0 687.15 371.08">
  <defs>
    <style>
      .cls-1, .cls-2 {
        fill: none;
        stroke: #3cb14a;
        stroke-miterlimit: 10;
        stroke-width: 7px;
      }

      .cls-2 {
        stroke-linecap: round;
      }

      .cls-3 {
        fill: #3cb14a;
      }
    </style>
  </defs>
  <g id="Layer_1-2" data-name="Layer_1">
    <g>
      <path class="cls-1" d="M525.74,27.71c-3.48,5.05-9.26,13.19-17.68,23.32-9.2,11.06-10.75,11.13-16.13,19.12-6.27,9.31-12.22,20.98-12.23,32.2-.01,13.98.84,15.21,6.25,24.14,11.69-10.1,23.45-20.36,32.44-32.92,8.71-12.17,15.33-37.4,14.02-41.78-.21-.7-.95-6.41,1.41-.11,5.62,14.45,1.72,31.79-6.54,44.92-8.25,13.13-18.62,21.39-26.56,34.71-7.94,13.32-16.05,30.27-9.43,44.29-3.23-10.4,2.15-21.72,9.67-29.61,7.51-7.89,17.08-13.53,25.01-21,16.35-15.38,24.87-38.1,25.12-60.55.26-22.45-3.92-41.22-15.68-60.34-1.06-1.04-2.49-.66-2.21.58,1.58,6.88.07,12.09-7.46,23.02Z"/>
      <path class="cls-2" d="M515.3,143.64c13.71,0,24.83,11.12,24.83,24.83s-11.12,24.83-24.83,24.83c-13.71,0-24.83-9.46-24.83-24.7"/>
      <circle class="cls-1" cx="515.3" cy="167.68" r="9.33"/>
    </g>
    <g>
      <path class="cls-3" d="M0,371.08v-171h16.87v171H0ZM42.75,323.42c-6.48,0-12.26-1.82-17.33-5.45-5.08-3.63-8.47-8.76-10.19-15.4l1.64-18.39c0,5.23.76,9.68,2.28,13.35,1.52,3.67,3.77,6.48,6.73,8.43,2.97,1.95,6.52,2.93,10.66,2.93,6.4,0,11.38-2.18,14.93-6.56,3.55-4.37,5.33-10.58,5.33-18.62v-46.61c0-7.81-1.78-13.86-5.33-18.15-3.55-4.29-8.53-6.44-14.93-6.44-4.14,0-7.69.94-10.66,2.81-2.97,1.87-5.21,4.61-6.73,8.2-1.52,3.59-2.28,7.96-2.28,13.12l-2.46-16.4c2.5-7.1,6.48-12.59,11.95-16.46,5.46-3.87,11.32-5.8,17.57-5.8,9.29,0,16.47,3.4,21.55,10.19,5.08,6.79,7.61,16.4,7.61,28.81v46.73c0,12.65-2.64,22.43-7.91,29.34-5.27,6.91-12.75,10.37-22.43,10.37Z"/>
      <path class="cls-3" d="M113.37,151.36v138.32c0,5.15,1.15,9.16,3.46,12,2.3,2.85,5.56,4.27,9.78,4.27h7.73v15.69h-9.37c-8.98,0-15.97-2.81-20.96-8.43-5-5.62-7.5-13.55-7.5-23.78v-138.09h16.87Z"/>
      <path class="cls-3" d="M180.83,323.42c-10.62,0-18.58-2.83-23.89-8.49-5.31-5.66-7.96-14.19-7.96-25.59,0-13.66,3.12-23.87,9.37-30.63,6.25-6.75,15.62-10.13,28.11-10.13h21.67l1.64,12.18h-23.19c-7.34,0-12.87,2.38-16.57,7.14-3.71,4.76-5.56,11.91-5.56,21.43,0,7.26,1.68,12.69,5.04,16.28,3.36,3.59,8.39,5.39,15.11,5.39,7.5,0,13.12-1.97,16.87-5.91,3.75-3.94,5.62-9.9,5.62-17.86l2.46,10.07c-.08,5.78-1.19,10.62-3.34,14.52-2.15,3.91-5.33,6.81-9.54,8.73-4.22,1.91-9.49,2.87-15.81,2.87ZM207.07,321.66v-89.01c0-6.56-1.82-11.63-5.45-15.23-3.63-3.59-8.77-5.39-15.4-5.39-5.86,0-10.41,1.8-13.64,5.39-3.24,3.59-4.86,8.67-4.86,15.23h-16.28c0-11.01,3.08-19.54,9.25-25.59,6.17-6.05,14.87-9.08,26.12-9.08s20.24,3.03,26.53,9.08c6.28,6.05,9.43,14.58,9.43,25.59v89.01h-15.69Z"/>
      <path class="cls-3" d="M248.53,321.66v-121.57h16.87v121.57h-16.87ZM305.92,321.66v-85.85c0-7.42-1.68-12.96-5.04-16.63-3.36-3.67-8.43-5.5-15.23-5.5s-11.87,2.03-15.23,6.09c-3.36,4.06-5.04,10.19-5.04,18.39l-2.46-17.57c2.81-7.57,6.64-13.23,11.48-16.98,4.84-3.75,10.66-5.62,17.45-5.62,10.38,0,18.13,3.14,23.25,9.43,5.11,6.29,7.67,15.75,7.67,28.4v85.85h-16.87Z"/>
      <path class="cls-3" d="M339.18,215.78v-15.69h52.47v15.69h-52.47ZM380.17,322.24c-10,0-17.24-2.77-21.73-8.32-4.49-5.54-6.73-13.51-6.73-23.89v-125.32h16.87v125.55c0,5.15,1.17,9.16,3.51,12,2.34,2.85,5.82,4.28,10.42,4.28h9.13v15.69h-11.48Z"/>
      <path class="cls-3" d="M445.29,297.41l24.36-97.33h17.33l-33.85,121.57h-15.69l-34.08-121.57h17.33l24.6,97.33Z"/>
      <path class="cls-3" d="M507.02,174.91v-16.87h16.87v16.87h-16.87ZM507.02,321.66v-121.57h16.87v121.57h-16.87Z"/>
      <path class="cls-3" d="M542.74,215.78v-15.69h52.47v15.69h-52.47ZM583.73,322.24c-10,0-17.24-2.77-21.73-8.32-4.49-5.54-6.73-13.51-6.73-23.89v-125.32h16.87v125.55c0,5.15,1.17,9.16,3.51,12,2.34,2.85,5.82,4.28,10.42,4.28h9.13v15.69h-11.48Z"/>
      <path class="cls-3" d="M645.22,323.42c-10.62,0-18.58-2.83-23.89-8.49-5.31-5.66-7.96-14.19-7.96-25.59,0-13.66,3.12-23.87,9.37-30.63,6.25-6.75,15.62-10.13,28.11-10.13h21.67l1.64,12.18h-23.19c-7.34,0-12.87,2.38-16.57,7.14-3.71,4.76-5.56,11.91-5.56,21.43,0,7.26,1.68,12.69,5.04,16.28,3.36,3.59,8.39,5.39,15.11,5.39,7.5,0,13.12-1.97,16.87-5.91,3.75-3.94,5.62-9.9,5.62-17.86l2.46,10.07c-.08,5.78-1.19,10.62-3.34,14.52-2.15,3.91-5.33,6.81-9.54,8.73-4.22,1.91-9.49,2.87-15.81,2.87ZM671.45,321.66v-89.01c0-6.56-1.82-11.63-5.45-15.23-3.63-3.59-8.77-5.39-15.4-5.39-5.86,0-10.41,1.8-13.64,5.39-3.24,3.59-4.86,8.67-4.86,15.23h-16.28c0-11.01,3.08-19.54,9.25-25.59,6.17-6.05,14.87-9.08,26.12-9.08s20.24,3.03,26.53,9.08c6.28,6.05,9.43,14.58,9.43,25.59v89.01h-15.69Z"/>
    </g>
  </g>
</svg>